<svg xmlns="http://www.w3.org/2000/svg" version="1.1" xmlns:xlink="http://www.w3.org/1999/xlink" xmlns:svgjs="http://svgjs.dev/svgjs" viewBox="0 0 6.137409159990745 5.06800871916379"><g transform="matrix(1,0,0,1,3.0696922612826203,4.791173392349226)"><g><path d=" M -2.5730979502004097 -1.320514240783599 Q -2.57279225333218 -1.345532365202203 -2.57297229895193 -1.388043747014311 Q -2.57315234457168 -1.4305551288264187 -2.5743181265428308 -1.4725389465708276 Q -2.5756504487955745 -1.5205204525644378 -2.577899115615722 -1.5654753577198484 Q -2.5801477824358696 -1.610430262875259 -2.5806751599942475 -1.6294229423310629 Q -2.5845333431844844 -1.7683693867708923 -2.5409660871996937 -1.8386057321054534 Q -2.4973988312149036 -1.9088420774400148 -2.414430810434286 -1.9111458846687175 Q -2.3804439103554786 -1.9120896129310776 -2.345568608932188 -1.8990526136354342 Q -2.310693307508897 -1.886015614339791 -2.28027482371143 -1.8533473446662492 Q -2.249856339913963 -1.8206790749927078 -2.2307531931317275 -1.7631871644050747 Q -2.211650046349492 -1.7056952538174421 -2.2092074555527947 -1.6177291594958236 L -2.2065428110473073 -1.5217661475086033 L -2.226535105211312 -1.5212110132366268 L -2.2289221825808108 -1.6071778781418449 Q -2.2305598286831416 -1.6661551459256574 -2.2538977393824107 -1.69601886846979 Q -2.2772356500816797 -1.725882591013923 -2.315040403845574 -1.7363372833982693 Q -2.3528451576094684 -1.7467919757826156 -2.3988274341866784 -1.7455151669570697 Q -2.477796996134495 -1.7433223865827623 -2.520503047960437 -1.7141257577116074 Q -2.563209099786379 -1.6849291288404524 -2.5613216432616586 -1.616955328682838 Q -2.560239131431304 -1.5779703550630297 -2.542926479185514 -1.5669466500499074 Q -2.525613826939724 -1.555922945036785 -2.473633862113313 -1.5573662941439241 L -1.9778249668460086 -1.5711336240889429 Q -1.9418388373508009 -1.5721328657785008 -1.9239984345279908 -1.5781303675183809 Q -1.9061580317051805 -1.5841278692582608 -1.9006044508735604 -1.6002882448710571 Q -1.8950508700419404 -1.6164486204838535 -1.8939398554607025 -1.648491804573458 L -1.8739475612966983 -1.6490469388454345 Q -1.8751973594459304 -1.6220018282968311 -1.8745591415424785 -1.5810037469038232 Q -1.8739209236390266 -1.540005665510815 -1.8727551416678758 -1.4980218477664062 Q -1.871422819415132 -1.450040341772796 -1.869743351733082 -1.4075705950310866 Q -1.8680638840510315 -1.365100848289377 -1.8653707367946604 -1.3401659940115693 L -1.8853630309586646 -1.3396108597395928 Q -1.8882504752102276 -1.371543016974802 -1.89469227087701 -1.3873703120244123 Q -1.9011340665437926 -1.4031976070740226 -1.91927979321619 -1.4081958671243449 Q -1.9374255198885872 -1.4131941271746673 -1.9734116493837948 -1.4121948854851094 L -2.4692205446510993 -1.3984275555400907 Q -2.506206288854507 -1.397400557136934 -2.5235468843232174 -1.3914169337538533 Q -2.5408874797919276 -1.3854333103707728 -2.5469269896208484 -1.3687592490470768 Q -2.552966499449769 -1.352085187723381 -2.553105656036405 -1.3210693750555755 L -2.5730979502004097 -1.320514240783599 M -2.2234807476595133 -1.5192950539610228 Q -2.2236746716360627 -1.5623062431272308 -2.221550163989825 -1.5938773765763339 Q -2.2194256563435877 -1.625448510025437 -2.217592780699459 -1.6495086548062392 Q -2.2157599050553305 -1.6735687995870412 -2.215287667905508 -1.692589235756444 Q -2.2098166111773994 -1.7837762279114537 -2.180035972264742 -1.8281199258397267 Q -2.1502553333520846 -1.8724636237679995 -2.0886400587204563 -1.8871795312177295 L -1.9863181481886076 -1.9130296110070137 Q -1.9465833702829887 -1.923136411924769 -1.9308671020877735 -1.933576666424352 Q -1.9151508338925585 -1.9440169209239355 -1.915678211450936 -1.9630096003797397 Q -1.917038663435921 -1.9759768348727436 -1.9227724763966123 -1.9843208979676517 Q -1.9285062893573035 -1.99266496106256 -1.939779618283494 -2.002355784294975 L -1.9281728357754753 -2.0166834707729637 Q -1.8964353485541003 -1.9905543317731218 -1.8820800918718337 -1.9599409914524994 Q -1.8677248351895672 -1.929327651131877 -1.8665035397912189 -1.8853446039710677 Q -1.865004677256882 -1.8313654097282566 -1.887024330569528 -1.795740490528476 Q -1.9090439838821738 -1.7601155713286956 -1.9707147719409999 -1.747398893295366 L -2.070176621916242 -1.7266301571878793 Q -2.111966142665459 -1.7184670722593272 -2.143176438837777 -1.707596588698962 Q -2.1743867350100956 -1.6967261051385967 -2.19239386462382 -1.6787193485435146 Q -2.2104009942375447 -1.6607125919484327 -2.209540536115981 -1.629724535994226 L -2.2065428110473073 -1.5217661475086033 L -2.2234807476595133 -1.5192950539610228 M -2.3604199841166227 -2.7823042158955644 Q -2.320112285130349 -2.7642130743497155 -2.2818285417714104 -2.749461633931 Q -2.2435447984124717 -2.7347101935122846 -2.2227405601569656 -2.727555917126224 Q -2.203827616288324 -2.7210520295025327 -2.1864807724253614 -2.716144177834643 Q -2.1691339285623994 -2.7112363261667527 -2.15746096786003 -2.70827964078597 L -2.1649404386272746 -2.686529755337032 Q -2.2372246275596632 -2.7008124732291843 -2.2842437152854025 -2.694774643367454 Q -2.3312628030111426 -2.6887368135057246 -2.358705640665887 -2.6627485341964796 Q -2.3861484783206315 -2.6367602548872346 -2.400782225473937 -2.5942061311827906 L -2.414115195102504 -2.555434596252075 Q -2.423871026538041 -2.527065180449112 -2.423858109098057 -2.511727324238424 Q -2.4238451916580726 -2.496389468027736 -2.41175927925923 -2.486945913533399 Q -2.3996733668603873 -2.4775023590390624 -2.3694126566705607 -2.4670961388411565 L -1.8776761160858744 -2.2979950606251824 Q -1.8483610530894794 -2.287914034808461 -1.8325503732820754 -2.2877643550578526 Q -1.8167396934746711 -2.287614675307245 -1.8072961389803346 -2.299700587706087 Q -1.7978525844859978 -2.3117865001049296 -1.7880967530504608 -2.3401559159078924 L -1.7721622283724172 -2.3864926283860646 Q -1.7575284812191116 -2.4290467520905086 -1.76474939534017 -2.468012870697015 Q -1.7719703094612282 -2.506978989303521 -1.8084484652135144 -2.545431481458282 Q -1.8449266209658008 -2.5838839736130423 -1.9163508694849687 -2.622192937622425 L -1.9088713987177237 -2.643942823071363 Q -1.8795862716714504 -2.6306996612931606 -1.8304126176129818 -2.6137895534715634 Q -1.8086627321640438 -2.606310082704318 -1.7686203556587115 -2.5935975658879986 Q -1.728577979153379 -2.5808850490716786 -1.6843978835430122 -2.570979537885534 Q -1.7028740913702893 -2.5234019197828665 -1.7241593553628176 -2.463043096593805 Q -1.745444619355346 -2.4026842734047436 -1.761704338414574 -2.355401913733139 Q -1.7727609473748493 -2.323249909156448 -1.790971832721185 -2.270293666324251 Q -1.8091827180675206 -2.217337423492054 -1.8291971404854324 -2.15759905311524 Q -1.8492115629033439 -2.097860682738426 -1.8648807651004462 -2.046145345530724 L -1.883793708969088 -2.0526492331544155 Q -1.8752787831580462 -2.0835603321066114 -1.8757495562196855 -2.100641853488632 Q -1.876220329281325 -2.117723374870653 -1.8914534096665876 -2.1287779332958516 Q -1.90668649005185 -2.1398324917210503 -1.9407297890154054 -2.151539489443695 L -2.4097707969577216 -2.3128359025112393 Q -2.444759743114709 -2.324868094615068 -2.463097138096286 -2.3253579367219217 Q -2.481434533077862 -2.3258477788287752 -2.4929469471247163 -2.3123583636148455 Q -2.50445936117157 -2.2988689484009157 -2.515486034181724 -2.2698790797857056 L -2.5343989780503655 -2.276382967409397 Q -2.5158928342729667 -2.327122721473545 -2.4944599410649073 -2.386373300278582 Q -2.4730270478568475 -2.445623879083619 -2.454816162510512 -2.498580121915816 Q -2.436605277164176 -2.551536364748013 -2.4255486682039007 -2.583688369324704 Q -2.4105897266694107 -2.6271881402225805 -2.3920386789668298 -2.68267109822895 Q -2.3734876312642488 -2.7381540562353193 -2.3604199841166227 -2.7823042158955644 M -2.0877389674276405 -2.5235667753550373 Q -2.0877389674276405 -2.5235667753550373 -2.0782824954933194 -2.5203148315431916 Q -2.068826023558999 -2.517062887731346 -2.068826023558999 -2.517062887731346 L -2.1257350402662976 -2.35157462888073 Q -2.1257350402662976 -2.35157462888073 -2.1351915122006186 -2.3548265726925757 Q -2.1446479841349397 -2.3580785165044214 -2.1446479841349397 -2.3580785165044214 L -2.0877389674276405 -2.5235667753550373 M -2.203133759906324 -2.5939162022809303 Q -2.1505326474054334 -2.5715975337796815 -2.122000634411878 -2.562314525940861 Q -2.093468621418323 -2.5530315181020398 -2.069827441582521 -2.544901658572426 Q -2.0461862617467186 -2.5367717990428114 -2.0174916515625716 -2.5279616148007067 Q -1.9887970413784242 -2.519151430558602 -1.9335943738280568 -2.50439793960481 L -1.941073844595302 -2.482648054155872 Q -1.975797468271348 -2.489301621530171 -2.0085570082203024 -2.486291215854375 Q -2.0413165481692563 -2.4832808101785786 -2.066940880777364 -2.465655726394691 Q -2.092565213385472 -2.4480306426108034 -2.1055729886328547 -2.4102047548735195 L -2.1244859325014964 -2.416708642497211 Q -2.1114781572541137 -2.4545345302344947 -2.1244777303611904 -2.4843843392629252 Q -2.1374773034682666 -2.5142341482913557 -2.162092015912546 -2.536445990432102 Q -2.1867067283568256 -2.5586578325728486 -2.210613230673569 -2.5721663168319924 L -2.203133759906324 -2.5939162022809303 M -1.9848590124258818 -3.3603719220418 L -1.3449306491015731 -3.156861013702538 Q -1.3081136217412819 -3.1451774142421165 -1.2866218560828242 -3.1503353216551995 Q -1.2651300904243665 -3.155493229068283 -1.2555680836661935 -3.165767859317428 L -1.2399937861792687 -3.15322029948339 Q -1.2603725556790186 -3.1311136092364067 -1.2861707217801193 -3.0998893458212353 Q -1.31196888788122 -3.0686650824060635 -1.3376913855409982 -3.036737772557868 Q -1.3665507731592863 -3.000916888337941 -1.3918839133818917 -2.9686758894938943 Q -1.417217053604497 -2.936434890649848 -1.4307166956566504 -2.9164909776821344 L -1.446290993143575 -2.9290385375161727 Q -1.41585214531547 -2.9700077520912345 -1.4194526229798607 -2.9902447617662884 Q -1.4230531006442517 -3.0104817714413423 -1.475315119069948 -3.026903751531215 L -1.944071794230273 -3.1862529890337443 L -1.9530255771126406 -3.2165816845562265 L -1.7400159416102219 -2.849775338941641 Q -1.6999576246762542 -2.781545351074005 -1.6700527704552461 -2.758094344826505 Q -1.6401479162342383 -2.7346433385790054 -1.614578193629718 -2.7448628926753393 Q -1.5890084710251982 -2.7550824467716732 -1.562355921608429 -2.7849762857621188 L -1.5467816241215044 -2.7724287259280804 Q -1.56904252759636 -2.747985891058059 -1.5882532247845904 -2.7249381338235223 Q -1.607463921972821 -2.7018903765889863 -1.6269126397155802 -2.677750215484253 Q -1.6407149555330223 -2.6606184882486357 -1.6525594689340366 -2.6451198592030334 Q -1.6644039823350507 -2.6296212301574307 -1.672257222461887 -2.6166857510588333 L -1.6878315199488116 -2.6292333108928716 Q -1.6777714416204565 -2.6480958352209503 -1.6818795679129779 -2.6796572562657115 Q -1.6859876942054992 -2.7112186773104727 -1.715642074468802 -2.762077479215349 L -2.028148093853314 -3.30664059571191 Q -2.017331331111737 -3.3184726557097477 -2.0057248382652517 -3.3328788808851533 Q -1.9941183454187663 -3.3472851060605584 -1.9848590124258818 -3.3603719220418 M -1.6123248760326363 -3.1501284507478293 L -1.5967505785457115 -3.137580890913791 L -1.7837092200728817 -2.9055238583586127 L -1.7930097376427874 -2.9258585669361135 L -1.6123248760326363 -3.1501284507478293 M -1.2951372305617577 -3.939098828699566 Q -1.1229926451921184 -4.0348863108040405 -0.9955872652741702 -4.003356655430673 Q -0.8681818853562218 -3.9718270000573073 -0.7869813294605507 -3.8258973261652782 Q -0.7339821642352323 -3.730649814463295 -0.7354243760162394 -3.6365797872219963 Q -0.7368665877972463 -3.5425097599806974 -0.7931940177255782 -3.459669729574686 Q -0.8495214476539099 -3.376829699168675 -0.9587502454772852 -3.316050839965328 Q -0.9797221746593732 -3.3043812989982855 -1.0193369729949349 -3.2840547706957746 Q -1.0589517713304966 -3.2637282423932636 -1.0877881739558677 -3.24768262356358 Q -1.1262367107896956 -3.2262884651240022 -1.1631313866128299 -3.2051867378035706 Q -1.200026062435964 -3.1840850104831393 -1.2208993602533855 -3.170181577877296 L -1.230623977725921 -3.187658185529036 Q -1.2036338672303903 -3.204965234250267 -1.192569966350759 -3.217987910523817 Q -1.1815060654711276 -3.2310105867973675 -1.185452154092181 -3.249413803488881 Q -1.1893982427132346 -3.267817020180394 -1.2069025541637983 -3.2992749139535262 L -1.4480730674826778 -3.7326947837166786 Q -1.4660636098068685 -3.7650265078723977 -1.4793787171995656 -3.777644269762723 Q -1.4926938245922625 -3.7902620316530484 -1.5102725265835222 -3.787919119725022 Q -1.5278512285747818 -3.785576207796996 -1.5554262013086055 -3.7713768810971526 L -1.565150818781141 -3.788853488748893 Q -1.5428188283428392 -3.800135430206975 -1.5049516907724514 -3.8194894967622326 Q -1.4670845532020638 -3.8388435633174898 -1.4308699080070366 -3.8601390903924013 Q -1.3998982451075312 -3.878517232225552 -1.3606251935734495 -3.9015145673581575 Q -1.3213521420393677 -3.9245119024907624 -1.2951372305617577 -3.939098828699566 M -1.2872589052190628 -3.922883650939373 Q -1.3274551028180648 -3.9005170307525416 -1.3314228033226276 -3.8788546820177876 Q -1.3353905038271905 -3.8571923332830336 -1.3101064983985984 -3.8117531533885094 L -1.0669910615852116 -3.3748379620950093 Q -1.0417070561566195 -3.329398782200485 -1.0207705907574527 -3.321594013364094 Q -0.9998341253582861 -3.3137892445277033 -0.959637927759284 -3.336155864714535 Q -0.8862361756219759 -3.376999258099184 -0.8630615215747639 -3.435097755582269 Q -0.8398868675275519 -3.493196253065354 -0.8584899758888598 -3.5698182104881284 Q -0.8770930842501674 -3.6464401679109026 -0.9300922494754857 -3.7416876796128857 Q -1.0117790362447836 -3.888491183887502 -1.097089147776703 -3.934861269831044 Q -1.1823992593086226 -3.981231355774586 -1.2872589052190628 -3.922883650939373 M 0.07145101344492832 -4.290595868445335 Q 0.11034535519149641 -4.28772703939829 0.13387575627249348 -4.28047650666149 Q 0.1574061573534905 -4.273225973924689 0.17362450400018808 -4.2620025505589085 Q 0.19575303581181802 -4.249340478064183 0.21323036689499464 -4.2279970271199465 Q 0.23070769797817126 -4.20665357617571 0.22850090640352094 -4.176734851755273 Q 0.22629411482887074 -4.146816127334836 0.20203235116174556 -4.1305567662231395 Q 0.17777058749462038 -4.114297405111442 0.14685457226016885 -4.116577756405247 Q 0.11693584783973188 -4.118784547979898 0.09659749112574384 -4.135325444151949 Q 0.07625913441175575 -4.151866340324 0.07861304542471598 -4.183779646372466 Q 0.08045203840359116 -4.20871191672283 0.09991124729853101 -4.2278323034653384 Q 0.11937045619347092 -4.246952690207847 0.14766239758165378 -4.24987947214158 Q 0.14126983963679185 -4.258372716687782 0.12318775817329747 -4.264720025562222 Q 0.10510567670980303 -4.271067334436662 0.08316527880148256 -4.272685648258072 Q 0.03130615647272511 -4.276510753654133 -0.007485649111344306 -4.246783731947818 Q -0.04627745469541372 -4.2170567102415015 -0.05113239615964427 -4.15123551651654 Q -0.052824269700209425 -4.1282978277942055 -0.04675849588612313 -4.101779788876587 Q -0.04069272207203678 -4.075261749958968 -0.01974114576688696 -4.04664302444001 Q -0.0024929630520192925 -4.049381672470433 0.01211487318950194 -4.050309638170714 Q 0.026722709431023173 -4.051237603870995 0.03669561757116879 -4.050502006679445 Q 0.07359537768970775 -4.04778029707071 0.07160926527252254 -4.020853445092317 Q 0.07094722780012747 -4.0118778277661855 0.06252754297308094 -4.006482560635338 Q 0.05410785814603436 -4.001087293504491 0.04214036837785956 -4.001970010134351 Q 0.02518642453961195 -4.003220525359986 0.007934007219322248 -4.014018863037915 Q -0.009318410100967345 -4.024817200715844 -0.019773691021042483 -4.032607393324651 Q -0.06841179253944729 -4.012129720588586 -0.10059036102118982 -3.9769013267781124 Q -0.1327689295029323 -3.9416729329676388 -0.1374031918096978 -3.8788436116847214 Q -0.14225813327392828 -3.81302241795976 -0.10948195203349173 -3.7679894084745604 Q -0.07670577079305518 -3.7229563989893615 -0.012964756436933733 -3.696696484883395 Q 0.05077625791918772 -3.670436570777429 0.13953514036648412 -3.663889755772633 Q 0.18939968106721244 -3.660211769814883 0.2390760878646312 -3.6675775425304478 Q 0.2887524946620501 -3.6749433152460127 0.3297637956370356 -3.69397810424771 Q 0.3707750966120211 -3.7130128932494078 0.39710076702090846 -3.743659411445161 Q 0.4234264374297958 -3.7743059296409145 0.4265895053534612 -3.8171894346435407 Q 0.4277664608599413 -3.8331460876677736 0.4250808653161734 -3.857910731347328 Q 0.4223952697724056 -3.8826753750268823 0.40724353905345567 -3.9083595151958743 Q 0.39209180833450563 -3.9340436553648663 0.3543744220944177 -3.952869137436145 L 0.3620174952649148 -3.961329836728191 Q 0.4146206839960662 -3.940403668055573 0.4390875199881886 -3.891471327660548 Q 0.46355435598031114 -3.8425389872655233 0.4590672131118557 -3.7817042476106346 Q 0.4539180327710052 -3.711893890629615 0.40695196335527595 -3.659707318375472 Q 0.3599858939395466 -3.607520746121329 0.2803419448404575 -3.581308318307376 Q 0.20069799574136837 -3.5550958904934227 0.09697975108385348 -3.5627461012855437 Q -0.012722238457748836 -3.5708376703925944 -0.09329058444630761 -3.606861851502897 Q -0.1738589304348664 -3.6428860326131995 -0.215614963606856 -3.7021180652791457 Q -0.2573709967788456 -3.761350097945092 -0.25170689840391003 -3.8381414906242135 Q -0.24758755413122957 -3.893989776209029 -0.22124561109526447 -3.931654109962462 Q -0.19490366805929935 -3.9693184437158946 -0.1591200075443514 -3.992248329021996 Q -0.12333634702940346 -4.015178214328097 -0.08839862328473808 -4.026639255273031 Q -0.053460899540072715 -4.038100296217964 -0.03314728466400635 -4.0416155559049365 Q -0.07862231825874583 -4.064021388171499 -0.10928934368699877 -4.096866228731058 Q -0.13995636911525175 -4.129711069290618 -0.1365726220341214 -4.175586446735288 Q -0.13421871102116115 -4.207499752783754 -0.11546255406361583 -4.230682862501476 Q -0.09670639710607049 -4.253865972219198 -0.06710665340017524 -4.267726173247513 Q -0.037506909694279944 -4.281586374275829 -0.0014778281839453178 -4.28745197616495 Q 0.034551253326389364 -4.29331757805407 0.07145101344492832 -4.290595868445335 M 0.4642690199825129 -4.273654388585592 Q 0.5350766677775471 -4.268431648525587 0.5762357539854529 -4.228295260764227 Q 0.6173948401933584 -4.188158873002868 0.6124663390099728 -4.121340388463892 Q 0.6068022406350373 -4.04454899578477 0.5494707226454656 -4.0081677225111285 Q 0.492139204655894 -3.971786449237486 0.39692267375542467 -3.958755246557766 Q 0.3825928037634456 -3.9547986285558627 0.3611715584946321 -3.9498609923670234 Q 0.3397503132258187 -3.944923356178184 0.31736855700256816 -3.9405579251155065 Q 0.2949868007793178 -3.9361924940528294 0.2741009807770891 -3.93171672341142 Q 0.2532151607748604 -3.92724095277001 0.2379615596880218 -3.924355185301277 Q 0.1589223609692506 -3.91313889955712 0.11545461281880609 -3.894786655260317 Q 0.07198686466836168 -3.876434410963514 0.06926515505962638 -3.8395346508449752 Q 0.0674261620807512 -3.8146023804946108 0.08255738556720138 -3.7954374104762914 Q 0.09768860905365162 -3.7762724404579715 0.1218852822124657 -3.7644605393389505 Q 0.14608195537127977 -3.7526486382199296 0.17101422572164393 -3.7508096452410546 Q 0.18098713386178955 -3.7500740480495045 0.19363716833485922 -3.7516477785951032 Q 0.20628720280792878 -3.753221509140702 0.21164145547377666 -3.7578401646149997 Q 0.18729766287665256 -3.7676574841059915 0.17611882278668312 -3.786029569840684 Q 0.16493998269671367 -3.8044016555753766 0.16663185623727889 -3.8273393442977115 Q 0.16898576725023912 -3.8592526503461775 0.19317397119820934 -3.87451472064386 Q 0.2173621751461795 -3.8897767909415424 0.2512700628226746 -3.8872757604902723 Q 0.28717253212719906 -3.884627610600692 0.30621935915055254 -3.864171110891738 Q 0.325266186173906 -3.8437146111827833 0.3230593945992557 -3.813795886762346 Q 0.3207790433054505 -3.7828798715278946 0.300322543596496 -3.7638330445045414 Q 0.27986604388754177 -3.7447862174811877 0.24725392050710293 -3.73766586576101 Q 0.2146417971266643 -3.7305455140408315 0.1747501645660816 -3.7334879028070316 Q 0.13585582281951353 -3.736356731854077 0.10247912580418111 -3.7528566135611285 Q 0.0691024287888487 -3.7693564952681804 0.05075441909746781 -3.799287257710273 Q 0.03240640940608691 -3.829218020152366 0.03556947732975224 -3.872101525154992 Q 0.041307135423842845 -3.9498902086481285 0.10430765218838217 -3.988360130501454 Q 0.1673081689529215 -4.02683005235478 0.2724976079935365 -4.039125657842951 Q 0.2938085136836174 -4.042567357810769 0.3197175676154964 -4.04717397526341 Q 0.34562662154737545 -4.051780592716052 0.3730683915598537 -4.05677551599697 Q 0.4005101615723321 -4.061770439277886 0.42403632804790714 -4.068056892249437 Q 0.4971653416017461 -4.080711827122539 0.5381766425767317 -4.099746616124237 Q 0.5791879435517172 -4.118781405125934 0.5819096531604525 -4.155681165244474 Q 0.5849256016458078 -4.196570088619071 0.5513607707271659 -4.224113728999438 Q 0.5177959398085239 -4.251657369379805 0.4759097256199122 -4.2547468775843145 Q 0.466934108293781 -4.25540891505671 0.4593808674695169 -4.254963322136358 Q 0.45182762664525267 -4.254517729216006 0.4466204934177148 -4.251893655369737 Q 0.47089072629568385 -4.241079045064731 0.48153414111906845 -4.222245093782608 Q 0.49217755594245316 -4.203411142500486 0.490853480997663 -4.185459907848224 Q 0.4885731297038578 -4.1545438926137725 0.46442170561546514 -4.139780467723098 Q 0.4402702815270725 -4.125017042832422 0.40636239385057715 -4.127518073283692 Q 0.37245450617408193 -4.130019103734963 0.3518014033509741 -4.149090006801628 Q 0.33114830052786626 -4.168160909868293 0.3334286518216715 -4.199076925102744 Q 0.33541476423885674 -4.226003777081138 0.3522336266604502 -4.243313481493504 Q 0.3690524890820437 -4.260623185905871 0.39771222906600157 -4.268536421909677 Q 0.42637196904995944 -4.276449657913482 0.4642690199825129 -4.273654388585592 M 1.5882194010788555 -3.758931621675131 Q 1.642671922062057 -3.718201743715898 1.6657247267834132 -3.677231410614018 Q 1.6887775315047695 -3.6362610775121373 1.6998316345713804 -3.5942752846127206 Q 1.7040501838385176 -3.5798807077839028 1.7104563627777176 -3.575088957435758 Q 1.725671037758318 -3.563708550358913 1.7664137995738063 -3.6081610796418055 L 1.7848315640240067 -3.5943847973908882 Q 1.7598702363419993 -3.5643526126493237 1.725826695934343 -3.520508715052141 Q 1.6917831555266867 -3.476664817454958 1.6366780265230183 -3.4029937596541564 L 1.618260262072818 -3.4167700419050733 Q 1.6485929831121058 -3.469009165503701 1.6636358950963623 -3.5133285833590153 Q 1.678678807080619 -3.557648001214329 1.6666156861445987 -3.606632499918337 Q 1.661173431577915 -3.6394255154129724 1.6405326068509503 -3.6710989483590666 Q 1.619891782123985 -3.7027723813051603 1.5910639768975845 -3.724335257871813 Q 1.5470214966905833 -3.7572785415153103 1.498720763746716 -3.757816311991617 Q 1.4504200308028483 -3.758354082467924 1.4010512507354593 -3.734090456303276 Q 1.3516824706680701 -3.7098268301386286 1.305236621457905 -3.667766955065745 Q 1.2587907722477394 -3.6257070799928615 1.2192588318755426 -3.57285610374446 Q 1.1114444490422786 -3.4287170776124567 1.1013682713665744 -3.3326040158391073 Q 1.0912920936908705 -3.2364909540657583 1.1657639238590722 -3.180786856268572 Q 1.1849824606766728 -3.1664116052241367 1.202990176050982 -3.16043480114521 Q 1.220997891425291 -3.154457997066284 1.2345981378148363 -3.154275519276785 Q 1.251798638893618 -3.1538976798415312 1.2626906418560766 -3.1601117180990403 Q 1.2735826448185352 -3.1663257563565503 1.2849630518953798 -3.1815404313371505 L 1.3436619936601568 -3.2600161233423526 Q 1.371214558161991 -3.2968516522427533 1.3786855632606487 -3.31936129646064 Q 1.3861565683593067 -3.3418709406785263 1.3733313266246512 -3.3614544330751253 Q 1.360506084889996 -3.381037925471724 1.3274726142527131 -3.406995387166886 L 1.339451990123076 -3.423010834514886 Q 1.355669241044958 -3.4096317174836055 1.3789925414864996 -3.3915617518911207 Q 1.4023158419280413 -3.3734917862986356 1.4276410732880827 -3.3539243987223553 Q 1.4529663046481243 -3.334357011146075 1.4745871585679247 -3.3181848537210854 Q 1.5082195979987256 -3.293028164393324 1.5368455996512445 -3.272865028987589 Q 1.5654716013037633 -3.252701893581855 1.5836875621800819 -3.2403253524918556 L 1.5717081863097193 -3.2243099051438553 Q 1.5480886224354824 -3.239479486627563 1.5328964942033283 -3.233359908228867 Q 1.5177043659711744 -3.227240329830171 1.484162113534159 -3.1823970772557697 L 1.3655662924175684 -3.0238441485105656 L 1.349550845069568 -3.0358235243809286 Q 1.3589325421919765 -3.050035623420247 1.3657068976742388 -3.0699443679261154 Q 1.3724812531565014 -3.0898531124319835 1.360469667645501 -3.0988376443347554 Q 1.354864261073701 -3.1030304258893824 1.3435589880712873 -3.1071158637289407 Q 1.3322537150688736 -3.1112013015684994 1.3046496151420193 -3.114365739469334 Q 1.2624426928843377 -3.119711365114105 1.220925978314924 -3.1326578863210477 Q 1.1794092637455103 -3.145604407527991 1.1433745072125094 -3.172558003236307 Q 1.003239342917506 -3.27737754210198 0.9872710928683268 -3.407957077215132 Q 0.9713028428191477 -3.538536612328284 1.0731275377172302 -3.6746679147862875 Q 1.1414099801782975 -3.7659559646698897 1.2289592739179216 -3.8053687946328982 Q 1.3165085676575456 -3.8447816245959068 1.4099230488959997 -3.83360196919198 Q 1.5033375301344534 -3.822422313788053 1.5882194010788555 -3.758931621675131 M 2.218182810705513 -3.0317192468925374 L 1.8150247592368844 -2.494701011135111 Q 1.7918534530391328 -2.4637964715156633 1.7896354082278862 -2.4418060127388364 Q 1.7874173634166397 -2.4198155539620103 1.7939639327032693 -2.4074001429508773 L 1.7769822895693372 -2.3968349266032685 Q 1.7628326293613172 -2.4233639129389277 1.741862607335758 -2.4580158706938304 Q 1.7208925853101986 -2.4926678284487327 1.6992338917976009 -2.527480196873294 Q 1.674933894198101 -2.5665379760813374 1.6528506596071548 -2.601086214097208 Q 1.6307674250162087 -2.6356344521130786 1.6163910010856852 -2.654955902239036 L 1.6333726442196173 -2.665521118586645 Q 1.6620121102194125 -2.623274450229879 1.6823044046828457 -2.6199998837838714 Q 1.7025966991462789 -2.616725317337864 1.7353346727901973 -2.6606482621581984 L 2.040353536699444 -3.050633508878523 L 2.0719383674864034 -3.049084811309875 L 1.6554061891927225 -2.968954015445107 Q 1.5777828067105217 -2.9536370153464597 1.545781815164741 -2.933138563207655 Q 1.5137808236189603 -2.9126401110688502 1.5149964741206865 -2.8851306182734957 Q 1.5162121246224127 -2.8576211254781416 1.535644393004237 -2.8226013175755167 L 1.518662749870305 -2.812036101227908 Q 1.5029283072101438 -2.8411123340336566 1.487505023767079 -2.866848929143245 Q 1.4720817403240143 -2.892585524252833 1.455705654985221 -2.918907071110428 Q 1.4440839170028514 -2.9375868785577532 1.4333582899855846 -2.953879850204647 Q 1.422632662968318 -2.9701728218515404 1.4130105863942182 -2.9818525325672285 L 1.4299922295281502 -2.9924177489148374 Q 1.4444820353199257 -2.9767000668937302 1.4756326629063172 -2.970170258246155 Q 1.5067832904927085 -2.9636404495985795 1.5645762862760109 -2.974864069263875 L 2.181732814306263 -3.090305915704603 Q 2.1893359052276535 -3.076192340380077 2.1991087303491916 -3.06048432048119 Q 2.2088815554707293 -3.0447763005823028 2.218182810705513 -3.0317192468925374 M 1.8968483977961765 -2.749357430989232 L 1.8798667546622445 -2.7387922146416233 L 1.7224450310828752 -2.9918186973372114 L 1.7447092823906116 -2.993893092117854 L 1.8968483977961765 -2.749357430989232 M 2.525911019614626 -2.264820261244834 L 2.506681062238683 -2.259324013495742 Q 2.4969255679713385 -2.289817132909797 2.486141427431156 -2.3038955672264954 Q 2.475357286890974 -2.317974001543194 2.4571570122497506 -2.3179722741067246 Q 2.438956737608527 -2.317970546670255 2.4033813164630313 -2.3078024883344352 L 1.9264783735396331 -2.171495544156958 Q 1.891864450262935 -2.1616022982085927 1.876068956755586 -2.1513674369560256 Q 1.8602734632482372 -2.1411325757034585 1.8589014742347276 -2.1240997354779765 Q 1.857529485221218 -2.107066895252494 1.8644004858821706 -2.0757493386760753 L 1.8451705285062272 -2.0702530909269834 Q 1.8396735897825476 -2.0967631581594164 1.8288870308313079 -2.1363219769738278 Q 1.8181004718800682 -2.175880795788239 1.8065583516069754 -2.2162637062777204 Q 1.7930925446217003 -2.263377101848782 1.7812070816079362 -2.303141857210137 Q 1.7693216185941723 -2.342906612571493 1.7602535007827584 -2.36735593238531 L 1.779483458158702 -2.372852180134402 Q 1.7902004502948432 -2.3426338731078014 1.8003664357068996 -2.328898781531774 Q 1.8105324211189562 -2.315163689955747 1.8293508508883056 -2.3148220746515453 Q 1.8481692806576548 -2.3144804593473434 1.8827832039343533 -2.3243737052957085 L 2.3596861468577517 -2.460680649473186 Q 2.3952615680032467 -2.470848707809006 2.410576312576197 -2.4809461628678458 Q 2.4258910571491477 -2.4910436179266853 2.4276063889033286 -2.5086946132802934 Q 2.4293217206575095 -2.526345608633902 2.4217640345152143 -2.556426854954069 L 2.4409939918911574 -2.561923102703161 Q 2.44717761609618 -2.5366493457269796 2.4576208323067483 -2.496472371784442 Q 2.4680640485173164 -2.456295397841905 2.4815298555025915 -2.4091820022708434 Q 2.4930719757756843 -2.368799091781362 2.50530078153012 -2.3296524915481327 Q 2.517529587284555 -2.290505891314903 2.525911019614626 -2.264820261244834 M 2.575686189243445 -1.3210966242526174 L 2.5556900967323823 -1.3214919523303195 Q 2.552323403154493 -1.3535647659635601 2.54014210779724 -1.369808720020974 Q 2.5279608124399875 -1.386052674078388 2.501074802771421 -1.392085292423828 Q 2.4741887931028543 -1.3981179107692678 2.4251983664507506 -1.3990864645596375 L 1.8673073853920992 -1.4101161179275215 Q 1.8685443868642735 -1.422094007030274 1.8687914669128372 -1.4345915648496883 Q 1.8690385469614008 -1.4470891226691025 1.868315471990239 -1.4611061538307317 L 2.426786635330597 -1.8841498391839904 L 2.042861659118192 -1.8917401382758676 Q 1.9878724047127694 -1.8928272904895478 1.9582595698356413 -1.8874115716508393 Q 1.928646734958513 -1.881995852812131 1.9157439658594544 -1.8617469380368552 Q 1.9028411967603955 -1.8414980232615796 1.8969724518616857 -1.797605451756667 L 1.876976359350623 -1.798000779834369 Q 1.8793515302755461 -1.8169575349121083 1.8804641911087605 -1.847941595102313 Q 1.881576851941975 -1.8789256552925178 1.8821105448468727 -1.9059203801824527 Q 1.88256517213623 -1.9289158865701748 1.8825396635166958 -1.9529210807853927 Q 1.8825141548971616 -1.9769262750006105 1.8808308081082168 -1.992962681817231 L 1.9008269006192795 -1.992567353739529 Q 1.905193398822722 -1.960474773702403 1.9168747918671982 -1.9442407028469317 Q 1.9285561849116744 -1.9280066319914604 1.9559420968930177 -1.921964130444078 Q 1.983328008874361 -1.9159216288966956 2.0313186309009117 -1.914972841510211 L 2.4812307123998236 -1.9060779597619173 Q 2.51822348354529 -1.905346602818169 2.535828779713838 -1.910499616190722 Q 2.553434075882386 -1.915652629563275 2.5602589516125853 -1.9320209242596487 Q 2.5670838273427847 -1.9483892189560224 2.568696390488776 -1.9793633959442845 L 2.588692482999839 -1.9789680678665826 Q 2.587376415912124 -1.9629909602616173 2.5859022175933286 -1.9390154156522272 Q 2.584428019274533 -1.915039871042837 2.5839733919851757 -1.8920443646551148 Q 2.5834989982919336 -1.8680490536418395 2.5840639420320146 -1.8460335854757854 Q 2.5846288857720956 -1.8240181173097312 2.585272895127717 -1.8060018676458895 L 2.1007164904353375 -1.4285060522100161 L 2.41365533823347 -1.4223191677939808 Q 2.4686445926388925 -1.4212320155803007 2.4982574275160205 -1.4266477344190092 Q 2.527870262393149 -1.4320634532577174 2.541272933804984 -1.4523024848310506 Q 2.5546756052168194 -1.4725415164043838 2.559544545489976 -1.5164538543131814 L 2.5795406380010393 -1.5160585262354793 Q 2.578165271701669 -1.497082004753855 2.5765527085556776 -1.4661078277655926 Q 2.5749401454096867 -1.4351336507773307 2.574406452504789 -1.4081389258873958 Q 2.573932058811547 -1.3841436148741204 2.5744673529458 -1.3606284397697366 Q 2.5750026470800536 -1.3371132646653527 2.575686189243445 -1.3210966242526174" fill="#3f170e" fill-rule="nonzero"></path></g><g clip-path="url(&quot;#SvgjsClipPath1001&quot;)"><g clip-path="url(&quot;#a67f2ab49-ec36-4698-90a6-d905b6540e67dc60c43a-2ea1-4c9f-8f17-fa3475e596eb&quot;)"><path d=" M 1.0352491343457633 -1.641482662267176 L 1.1021069089922757 -1.7066507706565173 L 1.0352491343457633 -1.7717526176240086 L 1.0934266627299434 -1.8447395737916337 L 1.0189156938597717 -1.9009955209421683 L 1.0674853160757216 -1.9807080114275548 L 0.9865138585751883 -2.0271572681443093 L 1.0247135682716348 -2.1123363259323096 L 0.9385737198668118 -2.1482831472858606 L 0.9658071642471056 -2.2375704132285525 L 0.8758241533749904 -2.2624515771331764 L 0.8916275024861833 -2.3544224306607875 L 0.7992590804274726 -2.3678072378744597 L 0.8034004192930893 -2.4610701891281437 L 0.7100712066175556 -2.46279298609624 L 0.7025174045266716 -2.555824022373449 L 0.6096851525150118 -2.5458185476741195 L 0.5905356016004013 -2.6371599176941567 L 0.4997243229551629 -2.6155918248820265 L 0.46927719961515035 -2.703852038786045 L 0.3818452534842547 -2.6710526349703625 L 0.34059751838271435 -2.7548070721885907 L 0.2579695253359342 -2.71133957945508 L 0.20651753126951466 -2.7892298808395948 L 0.14280717416087052 -2.7446690746455613 L 0.1439004876213934 -2.9988147581507145 L 0.1356509406010853 -2.9988478888616394 L 0.1356509406010853 -3.1764616301301998 C 0.1356509406010853 -3.2008789640818747 0.11517616124947727 -3.220657998504059 0.0899305595246791 -3.220657998504059 L -0.05667283631814479 -3.220657998504059 C -0.08191843804294296 -3.220657998504059 -0.10236008668362595 -3.2008789640818747 -0.10236008668362595 -3.1764616301301998 L -0.10236008668362595 -2.999543633791063 L -0.11137164005520717 -2.9996098952129127 L -0.11239869209388009 -2.7562648234692873 L -0.1300242303059439 -2.7357237826958296 L -0.20652304183161174 -2.7892298808395948 L -0.25797503589803106 -2.71133957945508 L -0.3405698982338864 -2.7548070721885907 L -0.38181763333542673 -2.6710526349703625 L -0.4692495794663224 -2.7038520387860454 L -0.49972983351725975 -2.6155918248820265 L -0.5905411121624983 -2.637159917694157 L -0.6096906630771091 -2.5458185476741195 L -0.7024897843778437 -2.555824022373449 L -0.7100767171796529 -2.46279298609624 L -0.8034059298551866 -2.4610701891281437 L -0.799231460278645 -2.36780723787446 L -0.8916330130482805 -2.3544224306607875 L -0.8757965332261629 -2.2624515771331764 L -0.9657795440982782 -2.2375704132285525 L -0.938579230428909 -2.148283147285861 L -1.0247190788337324 -2.1123363259323096 L -0.9865193691372858 -2.0271572681443093 L -1.0674908266378196 -1.9807080114275548 L -1.0189212044218694 -1.9009955209421685 L -1.0933990425811164 -1.844739573791634 L -1.035221514196936 -1.7717526176240086 L -1.102112419554374 -1.7066507706565173 L -1.035221514196936 -1.641482662267176 L -1.0933990425811164 -1.568495706099551 L -1.0189212044218694 -1.5122728896599413 L -1.0674908266378198 -1.43252726846363 L -0.9865193691372862 -1.3860780117468756 L -1.0247190788337324 -1.3009320846698003 L -0.9385792304289095 -1.2649521326053241 L -0.9657795440982786 -1.1756648666626321 L -0.8757965332261629 -1.1508168334689337 L -0.8916330130482808 -1.0588128492303976 L -0.7992314602786454 -1.0454280420167246 L -0.8034059298551866 -0.952165090763041 L -0.7100767171796531 -0.95047542450587 L -0.7024897843778439 -0.8574112575177355 L -0.6096906630771093 -0.8674498629279901 L -0.5905411121624985 -0.7761084929079525 L -0.49972983351725997 -0.7976434550091587 L -0.4692495794663226 -0.7093832411051397 L -0.38181763333542695 -0.7421826449208222 L -0.3405698982338866 -0.6584613384135194 L -0.25797503589803117 -0.70192883114703 L -0.20652304183161185 -0.6240385297625148 L -0.13002423030594412 -0.6775114971953551 L -0.08877649520440367 -0.6294719663542039 L 0.00468524031482942 -0.18747515190468622 L 0.10676096067454477 -0.6504437063696855 L 0.13001871974384693 -0.6775114971953551 L 0.2065175312695149 -0.6240385297625148 L 0.2579695253359344 -0.70192883114703 L 0.34059751838271457 -0.6584613384135194 L 0.38184525348425513 -0.7421826449208222 L 0.46927719961515035 -0.7093832411051397 L 0.4997243229551629 -0.7976434550091587 L 0.5905356016004015 -0.7761084929079529 L 0.6096851525150122 -0.8674498629279905 L 0.7025174045266716 -0.857411257517736 L 0.7100712066175561 -0.95047542450587 L 0.8034004192930893 -0.952165090763041 L 0.7992590804274731 -1.045428042016725 L 0.8916275024861833 -1.0588128492303976 L 0.8758241533749909 -1.1508168334689337 L 0.965807164247106 -1.1756648666626326 L 0.9385737198668118 -1.2649521326053244 L 1.0247135682716353 -1.3008989539588756 L 0.9865138585751887 -1.3860780117468756 L 1.0674853160757216 -1.43252726846363 L 1.0189156938597717 -1.5122728896599413 L 1.0934266627299434 -1.568495706099551 Z M 0.025160019666436995 -0.49602146274857795 L -0.01158193874931257 -0.4884013992358436 L -0.0418965392456252 -0.6313935475878498 L 0.00001381007441358939 -0.669328211596897 L 0.052824163288755166 -0.6215205957322198 Z M 0.00001381007441358939 -2.743907068294288 L -0.05998590741063814 -2.7982414342111763 L 0.05964908973929117 -2.797910127101927 Z M 0.0962253946004159 -2.775116197985574 L 0.0767114058656313 -2.7978438656800773 L 0.09632478673319089 -2.7978107349691523 Z M -0.06515429831492736 -2.8604609093281987 L -0.06478986049475322 -2.955314134706279 C -0.06213940362075854 -2.9548503047533297 -0.05945581603583894 -2.9545189976440804 -0.056672836318145015 -2.9545189976440804 L 0.0899305595246791 -2.9545189976440804 C 0.0923491014221991 -2.9545189976440804 0.09466825118694433 -2.9548503047533297 0.09698740095168956 -2.9552147425735042 L 0.09655670170966535 -2.8599970793752494 Z" fill="#3f170e" transform="matrix(1,0,0,1,0,0)" fill-rule="nonzero"></path></g><g clip-path="url(&quot;#SvgjsClipPath1000dc60c43a-2ea1-4c9f-8f17-fa3475e596eb&quot;)"><path d=" M 0.08776347264882634 -2.9630570946621075 L -0.055559982812429354 -2.9634546631932066 L -0.055559982812429354 -2.959909677124239 L -0.06477032044956044 -2.959909677124239 L -0.0651678889806595 -2.860484413638518 L 0.09657624175485835 -2.860020583685569 L 0.09697381028595764 -2.959478977882215 L 0.08776347264882634 -2.95951210859314 Z" fill="#d56a34" transform="matrix(1,0,0,1,0,0)" fill-rule="nonzero"></path></g><g clip-path="url(&quot;#b67f2ab49-ec36-4698-90a6-d905b6540e67dc60c43a-2ea1-4c9f-8f17-fa3475e596eb&quot;)"><path d=" M -0.0736688910226353 -0.7951917824007135 L -0.04487830322886932 -0.8095373802312089 L -0.03069835895299855 -2.4324783855999272 L -0.026358235821832388 -1.7465732773210603 L -0.02059349212089434 -0.8078477139740374 L 0.01462445359230835 -0.7881349409737033 L 0.06130562528553751 -0.8146726404245737 L 0.08807523971288278 -0.8026130616478984 L 0.09589408749116646 -2.7045146530045434 L -0.06581691253342647 -2.7049784829574928 Z M -0.0079044298366453 -2.3995795896514696 C -0.007838168414795454 -2.4117385605609196 0.007302566477898509 -2.421512120283775 0.02592202601771021 -2.421445858861925 C 0.04454148555752213 -2.421412728151 0.05961595902836625 -2.41153977629537 0.059582828317441106 -2.39938080538592 L 0.059052736942642126 -2.281071036672988 C 0.059019606231717425 -2.268945196474463 0.04387887133902346 -2.259171636751608 0.02525941179921154 -2.259237898173458 C 0.0066399522593998395 -2.259271028884383 -0.008401390500519357 -2.2691771114509374 -0.008368259789594212 -2.2813029516494625 Z" fill="#d56a34" transform="matrix(1,0,0,1,0,0)" fill-rule="nonzero"></path></g><g clip-path="url(&quot;#SvgjsClipPath1000dc60c43a-2ea1-4c9f-8f17-fa3475e596eb&quot;)"><path d=" M -0.06574806020067814 -2.72053968439808 L 0.09599607053483994 -2.7200758544451307 L 0.09629424693316424 -2.797800502275021 L -0.06544988380235361 -2.79826433222797 Z" fill="#d56a34" transform="matrix(1,0,0,1,0,0)" fill-rule="nonzero"></path></g><g clip-path="url(&quot;#SvgjsClipPath1000dc60c43a-2ea1-4c9f-8f17-fa3475e596eb&quot;)"><path d=" M 0.014809464807106654 -0.752471143152992 L -0.03475407873659142 -0.7801684174862351 L -0.06977324018424458 -0.7627085328287961 L -0.011595711800064024 -0.48841937708128436 L 0.02514624661568554 -0.4960394405940187 L 0.08557666334276148 -0.7700966813650556 L 0.06341221773398198 -0.7801021560643853 Z" fill="#d56a34" transform="matrix(1,0,0,1,0,0)" fill-rule="nonzero"></path></g><g clip-path="url(&quot;#SvgjsClipPath1000dc60c43a-2ea1-4c9f-8f17-fa3475e596eb&quot;)"><path d=" M 0.7426598727429574 -2.1340500907032185 L 0.7426598727429574 -2.212569875595307 L 0.6168625633609908 -2.1795385568031502 L 0.6170613476265403 -2.268759561323992 L 0.140012241018445 -2.0934318391092517 L 0.1398465874638204 -2.057849455575875 L 0.5836324603032839 -2.2209519454593147 L 0.5834999374595844 -2.170792049118968 L 0.5834668067486593 -2.153564079438003 L 0.5834005453268094 -2.1363029790461137 L 0.5833011531940346 -2.0876008339864636 L 0.5832680224831097 -2.0701409493290246 L 0.5832017610612599 -2.05271419538251 L 0.5817108790696379 -1.447051668963829 L 0.1365003856604019 -1.276892337653378 L 0.13616907855115268 -1.1995652583545868 L 0.8559006426843752 -1.2792446181290484 L 0.8600751122609165 -2.16489478257433 Z M 0.6150072435491947 -1.4240589555819259 L 0.616763171228216 -2.1450826174412203 L 0.7093303775524762 -2.1693674285491955 L 0.7093303775524762 -1.4006686736689236 L 0.2602435909650227 -1.288488086477104 Z M 0.8227368010485179 -1.309128519383337 L 0.20776454485993034 -1.2410449084326018 L 0.7426598727429574 -1.3746610655928522 L 0.7426598727429574 -2.099594151341289 L 0.8265137020939604 -2.121626074106369 Z" fill="#d56a34" transform="matrix(1,0,0,1,0,0)" fill-rule="nonzero"></path></g><g clip-path="url(&quot;#SvgjsClipPath1000dc60c43a-2ea1-4c9f-8f17-fa3475e596eb&quot;)"><path d=" M -0.6320610005006224 -2.1786275736964216 L -0.746229430347938 -2.208610867083485 L -0.7460969075042383 -2.1311843956519194 L -0.8516844832219965 -2.1589148006960874 L -0.84754314435638 -1.2733308976726556 L -0.11886628827342616 -1.1923263094611967 L -0.11853498116417671 -1.2700178265801623 L -0.5969424469201945 -1.4526011744874623 L -0.5984333289118164 -2.054056100618678 L -0.5984664596227414 -2.0715159852761165 L -0.5984995903336663 -2.088942739222631 L -0.598632113177366 -2.1354251266503104 L -0.598665243888291 -2.1526530963312753 L -0.5986983745992159 -2.1698810660122394 L -0.5988308974429156 -2.2265014509829486 L -0.11532130220445835 -2.0487883175816135 L -0.11518877936075855 -2.0842381782712907 L -0.6322929154770969 -2.2743090668476253 Z M -0.8143461720095981 -1.3031485375050942 L -0.8181562037659653 -2.1156792229390513 L -0.7460306460823884 -2.09672845628999 L -0.7448048097781659 -1.3804756168038854 L -0.16332770233468485 -1.2308241955559678 Z M -0.6302056806888262 -1.4296084611055595 L -0.2741830610895073 -1.2937394156024133 L -0.7115084452986093 -1.4063175713253324 L -0.7128336737356067 -2.165375289326449 L -0.6319616083678476 -2.1441716343344925 Z" fill="#d56a34" transform="matrix(1,0,0,1,0,0)" fill-rule="nonzero"></path></g><g clip-path="url(&quot;#c67f2ab49-ec36-4698-90a6-d905b6540e67dc60c43a-2ea1-4c9f-8f17-fa3475e596eb&quot;)"><path d=" M 0.5333519945439682 -2.2876309174361245 C 0.5337625886100197 -2.2878090926979766 0.5341829128560407 -2.287963948999142 0.5346109615591157 -2.2880947473890734 C 0.5382553397608583 -2.28981754435717 0.5419328486735255 -2.2914740799034163 0.5455772268752681 -2.293230007582438 C 0.5514744934199061 -2.2960461180110574 0.5573717599645438 -2.2986965748850516 0.5633021572201069 -2.3013801624699712 C 0.4469494105839398 -2.413679857915508 0.3005707895813252 -2.489889716173532 0.14184638354404666 -2.520804860925796 L 0.14174699141127234 -2.5014896564565605 C 0.14240960562977079 -2.497381448301869 0.1432378734028943 -2.493273240147177 0.14380109548861797 -2.489131901281561 C 0.2897620190385721 -2.4592110670323333 0.42459117273419933 -2.3894686862892813 0.533351994543968 -2.287630917436125" fill="#d56a34" transform="matrix(1,0,0,1,0,0)" fill-rule="nonzero"></path></g><g clip-path="url(&quot;#c67f2ab49-ec36-4698-90a6-d905b6540e67dc60c43a-2ea1-4c9f-8f17-fa3475e596eb&quot;)"><path d=" M 0.6253228480715796 -1.197365482318463 C 0.5095310133889426 -1.0504639100773145 0.3317184878548325 -0.9320216185206824 0.14201203709867194 -0.8927948567855633 C 0.1432710041138192 -0.8828887742190084 0.14244273634069615 -0.8728170380978288 0.1432710041138192 -0.8627453019766498 C 0.3501060324181695 -0.9050200891168632 0.5448483512349198 -1.0360189201140444 0.6658748382436963 -1.2001815927470818 C 0.6635888191898762 -1.1997840242159832 0.6613028001360557 -1.1991214099974838 0.6589505196603858 -1.1989557564428592 C 0.6477684476330343 -1.1979559201800565 0.6365493712064016 -1.1974253628712113 0.6253228480715796 -1.197365482318463" fill="#d56a34" transform="matrix(1,0,0,1,0,0)" fill-rule="nonzero"></path></g><g clip-path="url(&quot;#c67f2ab49-ec36-4698-90a6-d905b6540e67dc60c43a-2ea1-4c9f-8f17-fa3475e596eb&quot;)"><path d=" M -0.64858611770298 -1.1943505876242941 C -0.662202839893127 -1.1951457246864923 -0.6758195620832741 -1.1961065153033155 -0.6894031535624963 -1.1971666980529134 C -0.562876968540181 -1.027802503804661 -0.35872552782075007 -0.892463549676314 -0.14178563268429545 -0.8558872448151891 L -0.14175250197337064 -0.8748711421751749 C -0.14148745628597126 -0.8838495648358315 -0.1412886720204215 -0.8775878604710199 -0.14165310984059587 -0.8866656752644508 C -0.33950971548428954 -0.9212872681810049 -0.5280565913580775 -1.0435395914940035 -0.64858611770298 -1.1943505876242941" fill="#d56a34" transform="matrix(1,0,0,1,0,0)" fill-rule="nonzero"></path></g><g clip-path="url(&quot;#c67f2ab49-ec36-4698-90a6-d905b6540e67dc60c43a-2ea1-4c9f-8f17-fa3475e596eb&quot;)"><path d=" M -0.11885918072424251 -2.4946978607169497 C -0.11919048783349184 -2.505001511814603 -0.11915735712256692 -2.515371424334107 -0.11866039645869286 -2.525741336853611 C -0.2798081743975621 -2.5001312973086387 -0.45639486362744963 -2.4283701774452355 -0.5733131424815345 -2.3245716601174236 C -0.5644672426645777 -2.318243694330762 -0.5548924672072724 -2.311683813567625 -0.547272403694538 -2.306912991194435 C -0.43684774418173966 -2.4030914450095127 -0.26950452329990826 -2.469816696812326 -0.11885918072424251 -2.4946978607169497" fill="#d56a34" transform="matrix(1,0,0,1,0,0)" fill-rule="nonzero"></path></g></g></g><defs><clipPath id="SvgjsClipPath1001"><path d=" M -1.102112419554374 -3.2206821468770093 h 2.204224839108748 v 3.0331821468770093 h -2.204224839108748 Z"></path></clipPath><clipPath id="a67f2ab49-ec36-4698-90a6-d905b6540e67dc60c43a-2ea1-4c9f-8f17-fa3475e596eb"><path d=" M -1.102112419554374 -0.18747515190468622 L 1.1021069089922757 -0.18747515190468622 L 1.1021069089922757 -3.220657998504059 L -1.102112419554374 -3.220657998504059 Z"></path></clipPath><clipPath id="SvgjsClipPath1000dc60c43a-2ea1-4c9f-8f17-fa3475e596eb"><path d=" M -1.102112419554374 -3.2206821468770093 L 1.102112419554374 -3.2206821468770093 L 1.102112419554374 -0.1875 L -1.102112419554374 -0.1875 Z"></path></clipPath><clipPath id="b67f2ab49-ec36-4698-90a6-d905b6540e67dc60c43a-2ea1-4c9f-8f17-fa3475e596eb"><path d=" M -1.102112419554374 -0.18747515190468622 L 1.1021069089922757 -0.18747515190468622 L 1.1021069089922757 -3.220657998504059 L -1.102112419554374 -3.220657998504059 Z"></path></clipPath><clipPath id="c67f2ab49-ec36-4698-90a6-d905b6540e67dc60c43a-2ea1-4c9f-8f17-fa3475e596eb"><path d=" M -1.102112419554374 -0.18747515190468622 L 1.1021069089922757 -0.18747515190468622 L 1.1021069089922757 -3.220657998504059 L -1.102112419554374 -3.220657998504059 Z"></path></clipPath></defs></svg>